Love for All and Sharing is the first step to solving all the problems of humanity.

Website I want to share. 
               
   http://www.scenetime.com
 
 
  Credit to EVERYONE for sharing and seeding back
 especially to SCENETIME.COM where i get all my 
 downloads.


 support www.scenetime.com to grow faster.

                             
                                                            
                                                   

.                 ..................................NFO:....................................*******************************************************************************
                   Killer.Wave.2007.PART1.DVDRip.AC3.X264-BARC0DE
*******************************************************************************

-------------------------------------------------------------------------------
                              General Information
-------------------------------------------------------------------------------
Type.................: TV mini-series
Name.................: "Killer Wave"
Movie Information....: http://www.imdb.com/title/tt0875948/
Genre................: Action | Thriller

-------------------------------------------------------------------------------
                                    PLOT
-------------------------------------------------------------------------------
Suddenly the US east coast is hit by a type of natural disaster formerly reserved, 
except after a major earthquake, for the Pacific and Indian ocean rims: tidal 
waves of the destructive tsunami type. Scientist and fiction author John McAdams 
attends a national emergency conference which concludes the phenomenon must me 
man-made, quite possibly abusing the findings of John's secret former Sea Lion 
project, but who wants to and has the means? Indeed John soon finds himself set-up 
for a murder and chased. Major destructions mean major contracts for construction 
and coastal defenses, so building tycoons like Victor Bannister certainly have a 
considerable interest...  

-------------------------------------------------------------------------------
                                    CAST
-------------------------------------------------------------------------------
Angus Macfadyen	... 	John McAdams
Karine Vanasse	... 	Sophie Marleau
Louis Philippe Dandenault	... 	Marlon Clark
John Robinson	... 	Frank Brisick
Tom Skerritt	... 	Victor Bannister
Stephen McHattie	... 	Edgard Powell
Ellen David	... 	Annabelle
Bruce Dinsmore	... 	Jackson Wilcord
Christopher Heyerdahl	... 	Stanley Schiff
Andreas Apergis	... 	Aslan Bukhari
Anna Hopkins	... 	Mel
Vlasta Vrana	... 	Heinz Litchner
Linda Smith	... 	Olivia McPhee (as Linda E. Smith)
Larry Day	... 	Highway Patrolman Larry
Cary Lawrence	... 	Soccer Mom / Assassin
-------------------------------------------------------------------------------
                                    MEDiA iNFO
-------------------------------------------------------------------------------

General
Complete name                    : Killer.Wave.2007.PART1.DVDRip.AC3.X264-BARC0DE.mkv
Format                           : Matroska
File size                        : 1.46 GiB
Duration                         : 1h 25mn
Overall bit rate                 : 2 457 Kbps

Video
ID                               : 1
Format                           : AVC
Format/Info                      : Advanced Video Codec
Format profile                   : High@L3.0
Format settings, CABAC           : Yes
Format settings, ReFrames        : 3 frames
Muxing mode                      : Container profile=Unknown@3.0
Codec ID                         : V_MPEG4/ISO/AVC
Duration                         : 1h 25mn
Bit rate                         : 2 008 Kbps
Width                            : 720 pixels
Height                           : 400 pixels
Display aspect ratio             : 16:9
Frame rate                       : 25.000 fps
Color space                      : YUV
Chroma subsampling               : 4:2:0
Bit depth                        : 8 bits
Scan type                        : Progressive
Bits/(Pixel*Frame)               : 0.279
Stream size                      : 1.16 GiB (80%)
Writing library                  : x264 core 79

Audio
ID                               : 2
Format                           : AC-3
Format/Info                      : Audio Coding 3
Mode extension                   : CM (complete main)
Codec ID                         : A_AC3
Duration                         : 1h 25mn
Bit rate mode                    : Constant
Bit rate                         : 448 Kbps
Channel(s)                       : 6 channels
Channel positions                : Front: L C R, Side: L R, LFE
Sampling rate                    : 48.0 KHz
Stream size                      : 272 MiB (18%)
Language                         : English

Menu
00:00:00.000                     : Chapter 1
00:13:53.600                     : Chapter 2
00:27:13.360                     : Chapter 3
00:41:15.760                     : Chapter 4
00:55:53.000                     : Chapter 5
01:09:09.640                     : Chapter 6